#!OML:ASF H:\Punching\Project 1\Capture day 1\Session 1\female.ASF
:FULLY-SPECIFIED
:DEGREES
2515
root 2.24854 14.5566 2.95345 3.40664 -18.92 -0.596775
lowerback -6.01723 -3.88063 3.17101
upperback -9.12076 -5.26397 1.42182
thorax -6.31473 -2.81444 -0.28697
lowerneck -5.96513 9.15652 14.1494
upperneck 40.4922 15.5317 -11.8491
head 18.5496 7.10128 -5.3838
rclavicle -5.78463e-014 -5.56597e-015
rhumerus 5.86499 19.879 -40.9348
rradius 106.496
rwrist -14.4788
rhand -33.2153 12.2002
rfingers 7.12502
rthumb -6.42205 -17.6825
lclavicle -5.78463e-014 -5.56597e-015
lhumerus -24.8558 -11.6854 66.9768
lradius 135.665
lwrist 2.12113
lhand -26.9625 3.99591
lfingers 7.12502
lthumb -0.383824 33.9753
rfemur -34.885 5.85354 27.0894
rtibia 55.4456
rfoot -19.103 -12.6854
rtoes 8.62762
lfemur -23.2958 7.41686 -15.1521
ltibia 93.2306
lfoot -173.401 173.025
ltoes -17.1152
2516
root 2.23324 14.6196 2.99629 2.631 -20.0142 -0.188155
lowerback -5.69488 -3.42051 3.46344
upperback -8.76302 -4.66709 0.913426
thorax -6.15962 -2.5468 -0.972123
lowerneck -5.76306 9.14362 14.1073
upperneck 40.7484 15.485 -11.6466
head 18.6097 7.10205 -5.3121
rclavicle 8.74653e-015 1.11319e-014
rhumerus 6.17517 20.4174 -42.1246
rradius 105.925
rwrist -14.2999
rhand -33.1666 12.2649
rfingers 7.12502
rthumb -6.37501 -17.6191
lclavicle 8.74653e-015 1.11319e-014
lhumerus -25.2052 -11.3305 66.537
lradius 135.698
lwrist 2.04904
lhand -26.8989 3.89447
lfingers 7.12502
lthumb -0.322427 33.874
rfemur -33.4403 6.53562 26.8038
rtibia 54.3703
rfoot -18.7464 -12.4708
rtoes 8.65834
lfemur -26.8892 8.03482 -15.9484
ltibia 96.691
lfoot -171.582 171.513
ltoes -17.0229
2517
root 2.22075 14.6814 3.03607 1.8102 -21.0672 0.193248
lowerback -5.30711 -2.9584 3.81711
upperback -8.36244 -4.06455 0.387661
thorax -5.98703 -2.27718 -1.71037
lowerneck -5.60973 9.12844 14.0844
upperneck 40.9755 15.4135 -11.4271
head 18.6593 7.09564 -5.23561
rclavicle -8.94531e-015 -1.55052e-014
rhumerus 6.47683 20.8695 -43.3846
rradius 105.443
rwrist -14.0844
rhand -33.1175 12.3356
rfingers 7.12502
rthumb -6.32767 -17.5498
lclavicle -8.94531e-015 -1.55052e-014
lhumerus -25.3571 -11.016 66.0866
lradius 135.746
lwrist 2.04432
lhand -26.8533 3.78239
lfingers 7.12502
lthumb -0.27844 33.762
rfemur -31.9517 7.18129 26.5668
rtibia 53.2774
rfoot -18.3703 -12.2608
rtoes 8.66382
lfemur -30.5718 8.52354 -16.7078
ltibia 99.9551
lfoot -169.66 169.755
ltoes -17.3103
2518
root 2.21091 14.741 3.07302 0.942272 -22.0668 0.545446
lowerback -4.84848 -2.50527 4.23
upperback -7.91805 -3.46939 -0.149702
thorax -5.79737 -2.01078 -2.49569
lowerneck -5.50155 9.11383 14.0734
upperneck 41.1625 15.3225 -11.1908
head 18.6904 7.08328 -5.15142
rclavicle -4.14466e-014 -9.14409e-015
rhumerus 6.78696 21.2515 -44.6781
rradius 105.061
rwrist -13.8339
rhand -33.095 12.407
rfingers 7.12502
rthumb -6.3059 -17.4791
lclavicle -4.14466e-014 -9.14409e-015
lhumerus -25.3019 -10.7299 65.6172
lradius 135.817
lwrist 2.14002
lhand -26.8369 3.72353
lfingers 7.12502
lthumb -0.262566 33.7031
rfemur -30.4196 7.7786 26.3816
rtibia 52.1805
rfoot -17.9867 -12.0572
rtoes 8.66516
lfemur -34.3438 8.87955 -17.4195
ltibia 103.029
lfoot -167.634 167.865
ltoes -17.7545
2519
root 2.20346 14.7976 3.10729 0.0278124 -23.0077 0.873429
lowerback -4.31824 -2.07022 4.68897
upperback -7.43229 -2.89208 -0.692326
thorax -5.59216 -1.75096 -3.31548
lowerneck -5.43764 9.10058 14.0688
upperneck 41.305 15.2152 -10.9404
head 18.7007 7.06527 -5.05922
rclavicle 7.7526e-015 5.1684e-015
rhumerus 7.12001 21.5797 -45.9732
rradius 104.79
rwrist -13.5587
rhand -33.086 12.4832
rfingers 7.12502
rthumb -6.29724 -17.4032
lclavicle 7.7526e-015 5.1684e-015
lhumerus -25.0499 -10.4585 65.1325
lradius 135.914
lwrist 2.33359
lhand -26.8316 3.63796
lfingers 7.12502
lthumb -0.257447 33.6175
rfemur -28.8546 8.32978 26.2431
rtibia 51.0992
rfoot -17.6013 -11.8695
rtoes 8.67002
lfemur -38.2036 9.11356 -18.0824
ltibia 105.926
lfoot -165.549 166.078
ltoes -18.1608
2520
root 2.19805 14.8503 3.1393 -0.940476 -23.88 1.19833
lowerback -3.72368 -1.66471 5.16617
upperback -6.90769 -2.34689 -1.23739
thorax -5.36953 -1.50241 -4.15269
lowerneck -5.40292 9.09005 14.0627
upperneck 41.397 15.0982 -10.6798
head 18.683 7.0432 -4.95874
rclavicle -5.81445e-015 -9.93923e-015
rhumerus 7.49275 21.8722 -47.2505
rradius 104.633
rwrist -13.2644
rhand -33.074 12.5617
rfingers 7.12502
rthumb -6.28562 -17.325
lclavicle -5.81445e-015 -9.93923e-015
lhumerus -24.6274 -10.1913 64.6396
lradius 136.039
lwrist 2.58393
lhand -26.8502 3.59185
lfingers 7.12502
lthumb -0.275415 33.5714
rfemur -27.2651 8.83411 26.1293
rtibia 50.0553
rfoot -17.2284 -11.7054
rtoes 8.6909
lfemur -42.1369 9.22223 -18.7154
ltibia 108.659
lfoot -163.484 164.635
ltoes -18.3719
2521
root 2.19416 14.8991 3.16975 -1.98041 -24.6878 1.54934
lowerback -3.06683 -1.29387 5.62663
upperback -6.34762 -1.8399 -1.78345
thorax -5.13203 -1.26587 -4.98704
lowerneck -5.3852 9.08147 14.0471
upperneck 41.4409 14.976 -10.4143
head 18.6366 7.01754 -4.85148
rclavicle -5.46409e-014 -7.55382e-015
rhumerus 7.91285 22.1484 -48.4911
rradius 104.597
rwrist -12.9678
rhand -33.0041 12.6112
rfingers 7.12502
rthumb -6.2182 -17.2775
lclavicle -5.46409e-014 -7.55382e-015
lhumerus -24.0603 -9.91402 64.1423
lradius 136.192
lwrist 2.85645
lhand -26.8751 3.55498
lfingers 7.12502
lthumb -0.299485 33.5345
rfemur -25.6498 9.30226 26.0119
rtibia 49.0662
rfoot -16.8755 -11.5734
rtoes 8.71861
lfemur -46.1127 9.20002 -19.3385
ltibia 111.228
lfoot -161.546 163.66
ltoes -18.3218
2522
root 2.19116 14.9435 3.1994 -3.10766 -25.4333 1.93424
lowerback -2.34954 -0.964275 6.0514
upperback -5.74824 -1.37974 -2.32638
thorax -4.87703 -1.04415 -5.80405
lowerneck -5.38156 9.07692 14.0243
upperneck 41.4391 14.8545 -10.1497
head 18.5651 6.99052 -4.74019
rclavicle 1.3536e-014 1.71079e-014
rhumerus 8.39327 22.4259 -49.6878
rradius 104.681
rwrist -12.6875
rhand -32.946 12.6396
rfingers 7.12502
rthumb -6.1621 -17.2507
lclavicle 1.3536e-014 1.71079e-014
lhumerus -23.3742 -9.59786 63.6322
lradius 136.358
lwrist 3.11541
lhand -26.9011 3.47423
lfingers 7.12502
lthumb -0.324526 33.4537
rfemur -23.9974 9.74555 25.8876
rtibia 48.1418
rfoot -16.5509 -11.4822
rtoes 8.76277
lfemur -50.0908 9.05729 -19.9402
ltibia 113.634
lfoot -159.868 163.113
ltoes -18.0201
2523
root 2.1883 14.9832 3.2294 -4.34515 -26.1268 2.35924
lowerback -1.57028 -0.675645 6.43068
upperback -5.10306 -0.966166 -2.86328
thorax -4.60098 -0.836155 -6.59536
lowerneck -5.39623 9.07729 13.9968
upperneck 41.4014 14.739 -9.89427
head 18.4791 6.9636 -4.62914
rclavicle -1.19519e-014 3.37934e-015
rhumerus 8.94345 22.7163 -50.829
rradius 104.872
rwrist -12.4289
rhand -32.8897 12.6319
rfingers 7.12502
rthumb -6.10776 -17.26
lclavicle -1.19519e-014 3.37934e-015
lhumerus -22.585 -9.23714 63.1085
lradius 136.531
lwrist 3.32159
lhand -26.9174 3.41576
lfingers 7.12502
lthumb -0.340322 33.3952
rfemur -22.28 10.1762 25.7577
rtibia 47.2808
rfoot -16.2604 -11.4356
rtoes 8.82603
lfemur -54.0181 8.80839 -20.5024
ltibia 115.864
lfoot -158.544 162.843
ltoes -17.5517
2524
root 2.18479 15.0177 3.26092 -5.71209 -26.7842 2.80855
lowerback -0.718061 -0.426617 6.77357
upperback -4.40588 -0.59679 -3.38596
thorax -4.30613 -0.64072 -7.3576
lowerneck -5.42635 9.08361 13.9672
upperneck 41.3334 14.6346 -9.65439
head 18.3838 6.93856 -4.52164
rclavicle 3.55328e-014 -1.33186e-014
rhumerus 9.56569 23.0359 -51.9093
rradius 105.146
rwrist -12.1725
rhand -32.8533 12.6062
rfingers 7.12502
rthumb -6.07258 -17.2867
lclavicle 3.55328e-014 -1.33186e-014
lhumerus -21.7188 -8.82401 62.5716
lradius 136.708
lwrist 3.45603
lhand -26.9332 3.40342
lfingers 7.12502
lthumb -0.35554 33.3829
rfemur -20.46 10.5975 25.6496
rtibia 46.4741
rfoot -16.0064 -11.4295
rtoes 8.91519
lfemur -57.8483 8.48704 -20.9707
ltibia 117.91
lfoot -157.581 162.682
ltoes -16.9116
2525
root 2.18004 15.0462 3.29506 -7.21328 -27.4255 3.2568
lowerback 0.211471 -0.216387 7.09937
upperback -3.65122 -0.2699 -3.88204
thorax -3.99146 -0.457171 -8.08887
lowerneck -5.48378 9.09987 13.938
upperneck 41.2453 14.5502 -9.43831
head 18.2922 6.9181 -4.42043
rclavicle 6.55492e-014 -2.18663e-015
rhumerus 10.2782 23.3901 -52.9162
rradius 105.476
rwrist -11.9244
rhand -32.8112 12.5766
rfingers 7.12502
rthumb -6.03191 -17.3175
lclavicle 6.55492e-014 -2.18663e-015
lhumerus -20.7966 -8.34596 62.0204
lradius 136.888
lwrist 3.52109
lhand -26.9364 3.36909
lfingers 7.12502
lthumb -0.358632 33.3485
rfemur -18.5234 11.0026 25.603
rtibia 45.7421
rfoot -15.8192 -11.468
rtoes 9.12579
lfemur -61.5511 8.141 -21.2879
ltibia 119.778
lfoot -156.959 162.5
ltoes -16.2118
2526
root 2.17356 15.0686 3.33296 -8.8528 -28.0655 3.7017
lowerback 1.2142 -0.0425874 7.40546
upperback -2.84232 0.017273 -4.34306
thorax -3.65919 -0.284078 -8.77858
lowerneck -5.55578 9.12863 13.9045
upperneck 41.1378 14.4945 -9.25067
head 18.2027 6.90496 -4.32578
rclavicle 1.09332e-014 1.47101e-014
rhumerus 11.0862 23.7862 -53.8386
rradius 105.837
rwrist -11.6755
rhand -32.7663 12.5609
rfingers 7.12502
rthumb -5.98858 -17.3345
lclavicle 1.09332e-014 1.47101e-014
lhumerus -19.8475 -7.80243 61.4665
lradius 137.074
lwrist 3.53247
lhand -26.9318 3.41354
lfingers 7.12502
lthumb -0.354171 33.393
rfemur -16.4371 11.3662 25.6319
rtibia 45.0341
rfoot -15.6792 -11.5438
rtoes 9.48553
lfemur -65.1063 7.80404 -21.4222
ltibia 121.457
lfoot -156.586 162.253
ltoes -15.5492
